# AST/ASF file generated using VICON BodyLanguage
# -----------------------------------------------
:version 1.10
:name VICON
:units
  mass 1.0
  length 0.45
  angle deg
:documentation
   .ast/.asf automatically generated from VICON data using
   VICON BodyBuilder and BodyLanguage model FoxedUp or BRILLIANT.MOD
:root
   order TX TY TZ RX RY RZ
   axis XYZ
   position 0 0 0  
   orientation 0 0 0 
:bonedata
  begin
     id 1 
     name lhipjoint
     direction 0.716712 -0.619771 0.3197 
     length 2.67249 
     axis 0 0 0  XYZ
  end
  begin
     id 2 
     name lfemur
     direction 0.34202 -0.939693 0  
     length 7.04375  
     axis 0 0 20  XYZ
    dof rx ry rz
    limits (-160.0 20.0)
           (-70.0 70.0)
           (-60.0 70.0)
  end
  begin
     id 3 
     name ltibia
     direction 0.34202 -0.939693 0   
     length 8.12233   
     axis 0 0 20   XYZ
    dof rx
    limits (-10.0 170.0)
  end
  begin
     id 4 
     name lfoot
     direction 0.0986665 -0.271084 0.957485   
     length 1.97802   
     axis -90 7.62852e-016 20   XYZ
    dof rx rz
    limits (-45.0 90.0)
           (-70.0 20.0)
  end
  begin
     id 5 
     name ltoes
     direction 1.53569e-011 -4.21962e-011 1   
     length 0.991074   
     axis -90 7.62852e-016 20   XYZ
    dof rx
    limits (-90.0 20.0)
  end
  begin
     id 6 
     name rhipjoint
     direction -0.684484 -0.647907 0.334213   
     length 2.55643  
     axis 0 0 0  XYZ 
  end
  begin
     id 7 
     name rfemur
     direction -0.34202 -0.939693 0   
     length 7.00452   
     axis 0 0 -20   XYZ
    dof rx ry rz
    limits (-160.0 20.0)
           (-70.0 70.0)
           (-70.0 60.0)
  end
  begin
     id 8 
     name rtibia
     direction -0.34202 -0.939693 0   
     length 7.98545   
     axis 0 0 -20   XYZ
    dof rx
    limits (-10.0 170.0)
 end
 begin
     id 9 
     name rfoot
     direction -0.0877828 -0.241181 0.966502   
     length 2.17223  
     axis -90 -7.62852e-016 -20   XYZ
    dof rx rz
    limits (-45.0 90.0)
           (-20.0 70.0)
  end
  begin
     id 10 
     name rtoes
     direction -1.53586e-011 -4.22014e-011 1   
     length 1.0886   
     axis -90 -7.62852e-016 -20   XYZ
    dof rx
    limits (-90.0 20.0)
  end
  begin
     id 11 
     name lowerback
     direction -0.0470064 0.989573 -0.136149   
     length 2.05976   
     axis 0 0 0   XYZ
    dof rx ry rz
    limits (-20.0 45.0)
           (-30.0 30.0)
           (-30.0 30.0)
  end
  begin
     id 12 
     name upperback
     direction -0.00532895 0.998093 0.0615045   
     length 2.02286   
     axis 0 0 0   XYZ
    dof rx ry rz
    limits (-20.0 45.0)
           (-30.0 30.0)
           (-30.0 30.0)
  end
  begin
     id 13 
     name thorax
     direction 0.0171558 0.991502 0.128954   
     length 2.09196   
     axis 0 0 0   XYZ
    dof rx ry rz
    limits (-20.0 45.0)
           (-30.0 30.0)
           (-30.0 30.0)
  end
  begin
     id 14 
     name lowerneck
     direction 0.0221176 0.995362 0.0936194   
     length 1.70234   
     axis 0 0 0   XYZ
    dof rx ry rz
    limits (-20.0 45.0)
           (-30.0 30.0)
           (-30.0 30.0)
  end
  begin
     id 15 
     name upperneck
     direction -0.0237973 0.998511 -0.0490877   
     length 1.66068   
     axis 0 0 0   XYZ
    dof rx ry rz
    limits (-20.0 45.0)
           (-30.0 30.0)
           (-30.0 30.0)
  end
  begin
     id 16
     name head
     direction -0.00980141 0.999531 -0.0289958  
     length 1.82618  
     axis 0 0 0   XYZ
    dof rx ry rz
    limits (-20.0 45.0)
           (-30.0 30.0)
           (-30.0 30.0)
  end
  begin
     id 17 
     name lclavicle
     direction 0.894784 0.445864 -0.0238113  
     length 3.37997  
     axis 0 0 0   XYZ
    dof ry rz
    limits (-20.0 10.0)
           (0.0 20.0)
  end
  begin
     id 18 
     name lhumerus
     direction 1 -4.48975e-011 6.49229e-028   
     length 5.79016   
     axis 180 -30 -90   XYZ
    dof rx ry rz
    limits (-60.0 90.0)
           (-90.0 90.0)
           (-90.0 90.0)
  end
  begin
     id 19
     name lradius
     direction 1 -4.48959e-011 2.80427e-027   
     length 3.48314   
     axis 180 -30 -90   XYZ
    dof rx
    limits (-10.0 170.0)
  end
  begin
     id 20
     name lwrist
     direction 1 -4.48938e-011 5.60449e-029   
     length 1.74157   
     axis 8.48505e-016 90 90   XYZ
    dof ry
    limits (-180.0 0.0)
 end
  begin
     id 21 
     name lhand
     direction 1 -4.49048e-011 1.1209e-028   
     length 0.587065   
     axis -7.15228e-017 90 90   XYZ
    dof rx rz
    limits (-90.0 90.0)
           (-45.0 45.0)
  end
  begin
     id 22 
     name lfingers
     direction 1 -4.49036e-011 2.24179e-028   
     length 0.473307   
     axis -1.43046e-016 90 90   XYZ
    dof rx
    limits (0.0 90.0)
  end
  begin
     id 23
     name lthumb
     direction 0.707107 -6.34878e-011 0.707107   
     length 0.679577   
     axis -90 45 2.85299e-015   XYZ
    dof rx rz
    limits (-45.0 45.0)
           (-45.0 45.0)
  end
  begin
     id 24 
     name rclavicle
     direction -0.952963 0.303049 0.00480459   
     length 3.50503  
     axis 0 0 0   XYZ 
    dof ry rz
    limits (-10.0 20.0)
           (-20.0 0.0)
  end
  begin
     id 25 
     name rhumerus
     direction -1 -4.48973e-011 -1.5431e-027  
     length 5.69822   
     axis 180 30 90   XYZ
    dof rx ry rz
    limits (-90.0 60.0)
           (-90.0 90.0)
           (-90.0 90.0)
  end
  begin
     id 26 
     name rradius
     direction -1 -4.4896e-011 2.11972e-027   
     length 3.58077   
     axis 180 30 90   XYZ
    dof rx
    limits (-10.0 170.0)
  end
  begin
     id 27 
     name rwrist
     direction -1 -4.48943e-011 5.60449e-029   
     length 1.79039   
     axis 8.48505e-016 -90 -90   XYZ
    dof ry
    limits (-180.0 0.0)
  end
  begin
     id 28
     name rhand
     direction -1 -4.49007e-011 1.1209e-028   
     length 0.620156   
     axis -7.15228e-017 -90 -90   XYZ
    dof rx rz
    limits (-90.0 90.0)
           (-45.0 45.0)
  end
  begin
     id 29
     name rfingers
     direction -1 -4.49025e-011 2.24179e-028   
     length 0.499985   
     axis -1.43046e-016 -90 -90   XYZ
    dof rx
    limits (0.0 90.0)
  end
  begin
     id 30
     name rthumb
     direction -0.707107 -6.3481e-011 0.707107   
     length 0.717882   
     axis -90 -45 -2.85299e-015   XYZ
    dof rx rz
    limits (-45.0 45.0)
           (-45.0 45.0)
  end
:hierarchy
  begin
    root lhipjoint rhipjoint lowerback
    lhipjoint lfemur
    lfemur ltibia
    ltibia lfoot
    lfoot ltoes
    rhipjoint rfemur
    rfemur rtibia
    rtibia rfoot
    rfoot rtoes
    lowerback upperback
    upperback thorax
    thorax lowerneck lclavicle rclavicle
    lowerneck upperneck
    upperneck head
    lclavicle lhumerus
    lhumerus lradius
    lradius lwrist
    lwrist lhand lthumb
    lhand lfingers
    rclavicle rhumerus
    rhumerus rradius
    rradius rwrist
    rwrist rhand rthumb
    rhand rfingers
  end

#!OML:ASF H:\Terrain\Patient Classification 1\PaulMetrics\March17Take4\PaulMetrics.ASF
:FULLY-SPECIFIED
:DEGREES
1
root 8.53311 16.9562 -14.4311 5.52698 -3.60955 5.89727
lowerback 3.41963 -0.462621 -7.07077
upperback -2.40996 -0.998518 0.0101906
thorax -4.31332 -0.283125 4.04864
lowerneck -8.03015 4.61038 3.82642
upperneck 13.5276 6.18035 -3.10749
head 5.61841 2.99131 -1.14497
rclavicle -2.15184e-014 -1.86858e-014
rhumerus -49.9933 9.36916 -89.4816
rradius 34.7165
rwrist -6.24664
rhand -14.4235 -31.4689
rfingers 7.12502
rthumb 11.7207 -61.121
lclavicle -2.15184e-014 -1.86858e-014
lhumerus -41.4383 -19.3142 85.3595
lradius 60.0308
lwrist 22.9906
lhand -17.9383 -21.8553
lfingers 7.12502
lthumb 8.32992 7.96051
rfemur -39.0589 4.13898 13.975
rtibia 32.755
rfoot -2.81367 -15.2704
rtoes -7.08863
lfemur 11.3324 -4.22985 -26.0246
ltibia 16.4415
lfoot -13.0938 2.73983
ltoes -22.9849
2
root 8.47347 16.9472 -14.2676 5.42716 -3.61454 5.86116
lowerback 3.2488 -0.500632 -7.00446
upperback -2.37802 -1.02872 0.0521069
thorax -4.17879 -0.305171 4.05401
lowerneck -7.53144 4.80082 3.90395
upperneck 13.1226 6.44963 -3.21683
head 5.42309 3.12692 -1.1867
rclavicle 2.91965e-014 1.47101e-014
rhumerus -49.9073 9.33317 -89.4372
rradius 34.4203
rwrist -6.11612
rhand -14.4252 -31.2216
rfingers 7.12502
rthumb 11.719 -60.8738
lclavicle 2.91965e-014 1.47101e-014
lhumerus -41.7042 -19.0235 85.64
lradius 59.2918
lwrist 23.1269
lhand -17.2743 -21.9475
lfingers 7.12502
lthumb 8.97067 7.84174
rfemur -38.9964 3.49521 14.4977
rtibia 33.7804
rfoot -2.64583 -14.4215
rtoes -5.38275
lfemur 10.6918 -3.82001 -25.7382
ltibia 18.7227
lfoot -12.3167 2.63379
ltoes -24.2922
3
root 8.41041 16.9314 -14.1156 5.27459 -3.7724 6.00299
lowerback 3.3741 -0.452217 -7.18088
upperback -2.41324 -0.986769 0.0131759
thorax -4.29138 -0.274651 4.11215
lowerneck -6.95813 4.72275 3.96565
upperneck 12.8049 6.36956 -3.38544
head 5.23142 3.08828 -1.27202
rclavicle 3.2054e-015 1.59028e-015
rhumerus -49.9169 9.28804 -89.5058
rradius 34.2298
rwrist -6.12029
rhand -14.5505 -31.134
rfingers 7.12502
rthumb 11.5983 -60.793
lclavicle 3.2054e-015 1.59028e-015
lhumerus -42.0151 -18.8716 86.0063
lradius 58.3134
lwrist 22.9318
lhand -17.1343 -22.2724
lfingers 7.12502
lthumb 9.10572 7.511
rfemur -38.9463 2.99667 14.8261
rtibia 34.8578
rfoot -2.78958 -13.4389
rtoes -1.95443
lfemur 9.74415 -3.50511 -25.6238
ltibia 21.4197
lfoot -11.3498 2.60171
ltoes -22.1454
4
root 8.35252 16.9241 -13.9615 5.0538 -4.06458 6.28154
lowerback 3.57137 -0.355693 -7.41939
upperback -2.41961 -0.894462 -0.141371
thorax -4.42259 -0.219023 4.08132
lowerneck -6.93821 4.53266 3.80756
upperneck 13.1124 6.12986 -3.30662
head 5.30672 2.96731 -1.23722
rclavicle 3.2054e-015 1.74931e-014
rhumerus -50.0104 9.41705 -89.7465
rradius 34.2182
rwrist -6.25355
rhand -14.5944 -31.8922
rfingers 7.12502
rthumb 11.5559 -61.5537
lclavicle 3.2054e-015 1.74931e-014
lhumerus -42.284 -18.6811 86.2644
lradius 57.2228
lwrist 22.2363
lhand -17.7974 -23.1474
lfingers 7.12502
lthumb 8.46587 6.66291
rfemur -38.723 2.58381 14.997
rtibia 35.7487
rfoot -3.08139 -12.3527
rtoes 0.676866
lfemur 8.83916 -2.97514 -25.6981
ltibia 24.0408
lfoot -9.86679 2.6078
ltoes -19.5373
5
root 8.29712 16.9342 -13.794 4.85411 -4.29682 6.27534
lowerback 3.52875 -0.251403 -7.20178
upperback -2.3767 -0.742921 -0.270698
thorax -4.37454 -0.155508 3.81253
lowerneck -6.71891 4.53834 3.75955
upperneck 13.0851 6.1264 -3.1395
head 5.25421 2.97688 -1.18343
rclavicle -2.69602e-015 -1.11319e-014
rhumerus -50.1222 9.205 -89.7637
rradius 34.2986
rwrist -6.00893
rhand -14.4144 -32.5265
rfingers 7.12502
rthumb 11.7295 -62.1781
lclavicle -2.69602e-015 -1.11319e-014
lhumerus -42.6222 -18.3654 86.4065
lradius 56.429
lwrist 21.5583
lhand -18.0344 -23.5508
lfingers 7.12502
lthumb 8.23713 6.26866
rfemur -38.2885 2.40054 15.3623
rtibia 36.4668
rfoot -3.64191 -11.6313
rtoes 3.78297
lfemur 7.89175 -2.45181 -25.5353
ltibia 26.8321
lfoot -8.17638 2.94651
ltoes -18.7942
6
root 8.23216 16.9499 -13.6324 4.71933 -4.38128 5.95219
lowerback 3.46983 -0.189073 -6.84088
upperback -2.35131 -0.632252 -0.228287
thorax -4.32796 -0.113014 3.6458
lowerneck -6.44601 4.71982 3.95346
upperneck 12.9836 6.34564 -3.06306
head 5.18843 3.10188 -1.18296
rclavicle 7.59109e-015 8.74653e-015
rhumerus -50.1031 9.04692 -89.7053
rradius 34.1625
rwrist -5.79878
rhand -14.0104 -32.2666
rfingers 7.12502
rthumb 12.1191 -61.8956
lclavicle 7.59109e-015 8.74653e-015
lhumerus -42.9842 -17.8401 86.4916
lradius 55.7421
lwrist 20.8111
lhand -17.278 -22.946
lfingers 7.12502
lthumb 8.96713 6.84344
rfemur -37.7599 2.42235 16.0094
rtibia 37.01
rfoot -4.40217 -11.3638
rtoes 6.292
lfemur 6.81085 -2.02643 -24.9463
ltibia 29.6501
lfoot -6.10237 3.3452
ltoes -18.3758
7
root 8.16574 16.9618 -13.4809 4.59245 -4.38453 5.59613
lowerback 3.47273 -0.216256 -6.60411
upperback -2.27058 -0.648035 -0.11371
thorax -4.2427 -0.130816 3.63314
lowerneck -6.88249 4.83821 4.43324
upperneck 13.5245 6.49959 -3.42513
head 5.46436 3.16953 -1.34472
rclavicle -1.44367e-014 2.78299e-015
rhumerus -49.8519 9.20262 -89.7265
rradius 34.0011
rwrist -5.76131
rhand -13.4796 -31.8409
rfingers 7.12502
rthumb 12.6309 -61.439
lclavicle -1.44367e-014 2.78299e-015
lhumerus -43.0958 -17.6149 86.6353
lradius 54.8208
lwrist 20.599
lhand -16.7452 -22.1766
lfingers 7.12502
lthumb 9.48116 7.59013
rfemur -37.1888 2.32388 16.7236
rtibia 37.3744
rfoot -5.1718 -11.1389
rtoes 6.29939
lfemur 5.61179 -1.45469 -24.1993
ltibia 32.5329
lfoot -3.89354 3.38449
ltoes -18.3062
8
root 8.1072 16.9761 -13.3299 4.41557 -4.35409 5.54334
lowerback 3.58443 -0.272026 -6.52908
upperback -2.21015 -0.724202 -0.102867
thorax -4.23453 -0.172352 3.60849
lowerneck -7.20339 4.79269 4.52798
upperneck 13.956 6.46493 -3.68535
head 5.66391 3.13379 -1.43186
rclavicle -2.29845e-015 -1.74931e-014
rhumerus -49.6094 9.35789 -89.7352
rradius 33.897
rwrist -5.54353
rhand -13.2005 -31.7567
rfingers 7.12502
rthumb 12.8999 -61.338
lclavicle -2.29845e-015 -1.74931e-014
lhumerus -43.3075 -17.6604 86.9856
lradius 53.881
lwrist 20.8316
lhand -16.4927 -21.6417
lfingers 7.12502
lthumb 9.72479 8.11377
rfemur -36.5573 1.94737 17.1276
rtibia 37.635
rfoot -5.80125 -10.7421
rtoes 5.46954
lfemur 4.40573 -1.22323 -23.9284
ltibia 35.4021
lfoot -1.97582 3.56632
ltoes -17.5012
9
root 8.05123 16.9896 -13.1803 4.27568 -4.35165 5.4656
lowerback 3.67852 -0.329918 -6.36595
upperback -2.19253 -0.799113 -0.106957
thorax -4.26225 -0.213867 3.51891
lowerneck -7.0366 4.75092 4.06272
upperneck 13.9813 6.43129 -3.39668
head 5.61682 3.1152 -1.27352
rclavicle -1.01877e-014 -5.96354e-015
rhumerus -49.4223 9.7115 -89.8994
rradius 33.7406
rwrist -5.48564
rhand -13.2899 -31.4363
rfingers 7.12502
rthumb 12.8137 -61.023
lclavicle -1.01877e-014 -5.96354e-015
lhumerus -43.5291 -17.2784 87.15
lradius 52.9941
lwrist 20.4948
lhand -15.4825 -21.214
lfingers 7.12502
lthumb 10.6993 8.49357
rfemur -35.9416 1.53132 17.5535
rtibia 37.8593
rfoot -6.28806 -10.3305
rtoes 4.90271
lfemur 3.15804 -1.28958 -23.7532
ltibia 38.1789
lfoot -0.49873 3.95881
ltoes -14.8378
10
root 7.99291 17.0043 -13.0314 4.24525 -4.29265 5.19925
lowerback 3.59677 -0.404762 -6.11883
upperback -2.18672 -0.87674 -0.0458762
thorax -4.20233 -0.260687 3.44799
lowerneck -6.7311 4.80634 4.04657
upperneck 13.9007 6.52657 -3.46369
head 5.54483 3.16046 -1.29296
rclavicle -2.11209e-014 -6.75868e-015
rhumerus -49.3116 9.72986 -89.8357
rradius 33.8319
rwrist -5.11744
rhand -13.0675 -30.8692
rfingers 7.12502
rthumb 13.0281 -60.4424
lclavicle -2.11209e-014 -6.75868e-015
lhumerus -43.6885 -16.5811 87.1118
lradius 52.2009
lwrist 19.8324
lhand -14.6349 -20.9501
lfingers 7.12502
lthumb 11.5169 8.71351
rfemur -35.3941 1.37417 18.0946
rtibia 38.0313
rfoot -6.82447 -10.1963
rtoes 5.41618
lfemur 1.74442 -1.39779 -23.3095
ltibia 40.9056
lfoot 0.798126 4.44157
ltoes -10.6219
